<svg xmlns="http://www.w3.org/2000/svg" width="66" height="60" viewBox="0 0 66 60"><g><g><path fill="#fff" d="M66 55.589v4.41H0v-4.142a8.633 8.633 0 0 1 4.544-7.591l7.318-4.553c.818-.443 1.288-1.23 1.288-2.089v-2.992c-.869-.9-3.1-3.464-4.008-6.857A3.88 3.88 0 0 1 7.7 28.76V24.99c0-.882.387-1.771 1.1-2.542v-4.995c.007-.158.672-9.818 12.1-9.818 2.523 0 4.745.49 6.63 1.456.161-1.444.693-3.456 2.271-5.241C32.061 1.295 35.727-.001 40.7-.001c4.973 0 8.64 1.296 10.899 3.853 2.605 2.946 2.363 6.518 2.3 7.118v5.802a4.33 4.33 0 0 1 1.1 2.864v4.363a4.326 4.326 0 0 1-2.559 3.946 24.875 24.875 0 0 1-3.25 6.326c-.273.385-.538.732-.79 1.038v3.688c0 1.1.616 2.089 1.607 2.58l10.508 5.21C63.898 48.465 66 51.84 66 55.59zM20.57 46.734l6.189-3.348.206-.431.508.045 2.91-1.574a2.88 2.88 0 0 0 1.515-2.531v-3.61l-.078-.106-.138-.185a20.3 20.3 0 0 1-.688-1c-.031-.046-.062-.098-.094-.147a24.8 24.8 0 0 1-.977-1.68c-.069-.13-.138-.259-.208-.395l-.051-.108a20.93 20.93 0 0 1-.324-.677c-.028-.063-.058-.12-.087-.183l-.061-.137c-.023-.051-.043-.108-.066-.16a21.82 21.82 0 0 1-.275-.667c-.035-.088-.073-.169-.107-.258-.08-.215-.15-.413-.215-.604-.04-.115-.077-.232-.116-.35-.016-.05-.035-.101-.05-.152l-.09-.284a19.483 19.483 0 0 1-.21-.742c-.005-.02-.012-.038-.017-.059a4.37 4.37 0 0 1-1.21-1.502c0-.003-.001-.003-.002-.005-.085-.174-.134-.362-.194-.546-.04-.122-.1-.238-.13-.364a4.352 4.352 0 0 1-.111-.975v-4.363a4.33 4.33 0 0 1 1.1-2.864v-5.161c-1.751-1.19-3.968-1.794-6.6-1.794-9.31 0-9.882 7.387-9.902 7.7l.002 5.87-.362.323c-.468.421-.738.888-.738 1.281v3.768c0 .586.302 1.13.808 1.456l.377.24.1.431c.863 3.732 3.786 6.47 3.815 6.497l.35.324v3.917c0 1.658-.911 3.179-2.378 3.972l-7.317 4.553C3.502 51.315 2.2 53.49 2.2 55.857v1.96h13.2v-2.441a9.829 9.829 0 0 1 5.171-8.642zM63.8 55.59c0-2.92-1.636-5.545-4.27-6.851l-10.507-5.21a5.035 5.035 0 0 1-2.823-4.53v-4.501l.274-.31c.276-.31.594-.717.92-1.177a22.772 22.772 0 0 0 3.118-6.232l.176-.54.548-.167c.935-.286 1.564-1.12 1.564-2.072v-4.363c0-.612-.262-1.183-.737-1.608l-.363-.325.01-6.937c.002-.026.356-3.098-1.785-5.5C48.1 3.22 44.995 2.181 40.7 2.181c-4.31 0-7.422 1.045-9.244 3.108-1.776 2.008-1.823 4.422-1.786 5.21l.03.023v7.18l-.363.325a2.145 2.145 0 0 0-.737 1.609v4.363c0 .738.38 1.422 1.018 1.83l.376.24.1.432c.083.362.182.714.286 1.059l.02.067.061.194c.101.32.207.63.32.926.06.164.119.309.176.451l.066.164c.062.148.122.29.183.426l.057.127c.136.305.276.597.416.876v.001a22.325 22.325 0 0 0 1.142 1.986l.015.024c.229.354.435.647.598.873l.004.005a10.346 10.346 0 0 0 .407.529l.042.05.213.253v4.384a5.06 5.06 0 0 1-2.662 4.447l-9.813 5.309a7.644 7.644 0 0 0-4.025 6.724v2.441h46.2z"/></g></g></svg>