<svg xmlns="http://www.w3.org/2000/svg" width="25" height="29" viewBox="0 0 25 29"><g><g><path fill="#fafafa" d="M25 20.764c0 3.151-3.398 8.185-7.404 8.185-.811 0-1.622-.306-2.383-.56-.76-.254-1.521-.559-2.282-.559-.913 0-1.826.305-2.637.662-.811.253-1.521.507-2.231.507-1.927 0-3.753-1.474-5.325-4.321C.71 21.018 0 17.052 0 14.764c0-4.169 3.55-8.846 8.671-8.846 1.167 0 1.927.458 2.637.864.41.24.798.457 1.24.572a6.868 6.868 0 0 1-.023-.673c0-3.763 2.84-5.898 5.528-6.66.152-.051.253 0 .405.05.152.051.203.204.254.305l.05.153V.68c.051.356.051.661.051.966 0 1.744-.602 3.275-1.714 4.483.472-.188.949-.314 1.46-.314 2.688 0 4.412 1.729 5.427 3l.405.508-.608.305c-1.572 1.118-2.434 2.796-2.434 4.78 0 2.338 1.065 4.066 3.347 5.287l.253.152v.61c0 .102.05.204.05.306zM13.489 6.68c0 .152 0 .355.05.61 1.623-.61 4.21-2.136 4.21-5.593.05-.153.05-.305 0-.509-2.13.763-4.26 2.543-4.26 5.492zm10.497 13.726c-2.434-1.372-3.6-3.355-3.6-5.998 0-2.187.912-4.068 2.535-5.34-.964-1.118-2.333-2.185-4.31-2.185-.66 0-1.268.305-2.029.661-.913.457-1.978.965-3.296.965-1.014 0-1.724-.407-2.434-.813-.71-.407-1.319-.762-2.18-.762-3.601 0-7.658 3.203-7.658 7.83 0 2.185.71 5.948 2.637 9.455.913 1.729 2.485 3.762 4.412 3.762.507 0 1.166-.254 1.825-.508.862-.355 1.877-.712 2.992-.712.913 0 1.775.306 2.637.61.71.255 1.42.51 2.08.51 2.433 0 6.389-3.357 6.389-7.17v-.152-.153z"/></g></g></svg>