<svg xmlns="http://www.w3.org/2000/svg" width="52" height="60" viewBox="0 0 52 60"><g><g><path fill="#fff" d="M52 26.377H40.327v33.62L20.163 46.635 0 59.997V6.427C0 2.882 2.9.002 6.463.002h39.17v.01C49.152.09 52 2.97 52 6.475zM38.204 7.387a7.273 7.273 0 0 1 .149-1.463v-.003a7.368 7.368 0 0 1 2.086-3.81H6.463c-2.393 0-4.34 1.937-4.34 4.316v49.628l18.04-11.956 18.041 11.956zm11.674-.912c0-2.372-1.935-4.317-4.319-4.356-.089.001-.173.02-.26.027-.271.016-.542.036-.8.094-.038.007-.072.024-.11.033-1.985.481-3.546 2.073-3.956 4.067a5.235 5.235 0 0 0-.106 1.046v16.88h9.55z"/></g></g></svg>