<svg xmlns="http://www.w3.org/2000/svg" width="50" height="45" viewBox="0 0 50 45"><g><g><path fill="#fff" d="M48.467 25.008l-3.723 1.882 3.723 1.883a2.793 2.793 0 0 1 1.532 2.507c0 1.07-.586 2.03-1.532 2.51L27.45 44.418a5.434 5.434 0 0 1-2.45.581 5.431 5.431 0 0 1-2.45-.581L1.533 33.79A2.794 2.794 0 0 1 0 31.28c0-1.069.588-2.03 1.533-2.507l3.723-1.883-3.723-1.882A2.793 2.793 0 0 1 0 22.5c0-1.07.587-2.03 1.532-2.509l3.724-1.883-3.723-1.883A2.793 2.793 0 0 1 0 13.717c0-1.069.587-2.03 1.533-2.508L22.549.581a5.451 5.451 0 0 1 4.901 0l21.017 10.627A2.795 2.795 0 0 1 50 13.717c0 1.069-.587 2.03-1.533 2.508l-3.723 1.883 3.723 1.883A2.792 2.792 0 0 1 50 22.5c0 1.068-.588 2.03-1.533 2.508zm-24.89-.234c.891.45 1.955.45 2.846 0l21.016-10.628a.461.461 0 0 0 .262-.43.462.462 0 0 0-.262-.428L26.423 2.66a3.162 3.162 0 0 0-2.846 0L2.56 13.288a.463.463 0 0 0-.262.429c0 .111.034.314.262.43zm18.597 3.416L27.45 35.635a5.434 5.434 0 0 1-2.45.582 5.43 5.43 0 0 1-2.45-.581L7.826 28.19 2.56 30.852a.461.461 0 0 0-.262.429c0 .11.034.314.262.43l21.016 10.627c.89.45 1.955.45 2.846 0L47.439 31.71a.462.462 0 0 0 .262-.43.46.46 0 0 0-.262-.427zM47.7 22.5a.462.462 0 0 0-.263-.43l-5.264-2.662-14.724 7.446a5.433 5.433 0 0 1-2.45.581 5.438 5.438 0 0 1-2.45-.581L7.826 19.408 2.56 22.07a.462.462 0 0 0-.262.43c0 .11.034.313.262.428l21.016 10.628c.89.45 1.955.45 2.846 0l21.016-10.628a.46.46 0 0 0 .262-.428z"/></g></g></svg>