<svg xmlns="http://www.w3.org/2000/svg" width="72" height="60" viewBox="0 0 72 60"><g><g><path fill="#fff" d="M72 32.907c0 7.803-6.475 14.151-14.434 14.151H52.8c-.664 0-1.2-.526-1.2-1.176 0-.65.536-1.177 1.2-1.177h4.766c6.635 0 12.034-5.292 12.034-11.798 0-5.66-4.212-10.705-9.8-11.747-.162-.022-2.948-.393-5.62.003a1.193 1.193 0 0 1-1.366-.986 1.18 1.18 0 0 1 1.006-1.34c1.837-.274 3.674-.23 4.9-.145-.806-9.122-8.525-16.34-17.82-16.34-5.634 0-11.3 2.8-14.74 7.21 2.345 1.945 3.84 4.844 3.84 8.085 0 .65-.536 1.176-1.2 1.176-.664 0-1.2-.526-1.2-1.176 0-2.897-1.537-5.444-3.85-6.912a8.587 8.587 0 0 0-.842-.466c-.084-.04-.167-.082-.252-.119a8.268 8.268 0 0 0-1.002-.378c-.042-.011-.085-.02-.127-.032a8.494 8.494 0 0 0-.947-.208 8.62 8.62 0 0 0-1.38-.121c-4.63 0-8.4 3.696-8.4 8.236 0 .101.008.2.016.3l.015.229-.013.218c-.008.144-.018.288-.018.429v.741l-.68.319C5.646 21.985 2.4 27.058 2.4 31.945c0 7.037 5.838 12.76 13.014 12.76H21.6c.664 0 1.2.526 1.2 1.177 0 .65-.536 1.176-1.2 1.176h-6.186C6.914 47.058 0 40.278 0 31.945c0-5.594 3.428-11.183 8.42-13.85a6.162 6.162 0 0 1-.02-.448c0-5.84 4.844-10.588 10.8-10.588.41 0 .812.026 1.21.07.123.013.242.037.363.054.279.04.555.087.825.147.139.03.276.068.414.104a10.865 10.865 0 0 1 1.879.69c.091.042.186.074.276.12C28.075 3.134 34.385 0 40.9 0c10.734 0 19.637 8.464 20.27 19.052C67.408 20.66 72 26.451 72 32.907zM47.648 48.58c.47.46.47 1.203 0 1.663l-9.598 9.41a1.2 1.2 0 0 1-.392.256 1.204 1.204 0 0 1-.916 0 1.2 1.2 0 0 1-.392-.255l-9.598-9.411a1.158 1.158 0 0 1 0-1.663c.469-.46 1.227-.46 1.696 0L36 55.983V31.764c0-.65.536-1.176 1.2-1.176.664 0 1.2.526 1.2 1.176v24.22l7.552-7.404c.469-.46 1.227-.46 1.696 0z"/></g></g></svg>