<svg xmlns="http://www.w3.org/2000/svg" width="32" height="40" viewBox="0 0 32 40"><g><g><path fill="#fff" d="M10.092 15.772L15.44 4.81a.625.625 0 0 1 .56-.356c.238 0 .455.137.561.356l5.347 10.963c.059.12.08.254.06.386l-1.672 10.964a.653.653 0 0 1-.054.178l.873 12.009a.65.65 0 0 1-.165.485.62.62 0 0 1-.46.205h-9.22a.621.621 0 0 1-.463-.208.652.652 0 0 1-.162-.49l1.049-12.257-1.66-10.886a.655.655 0 0 1 .06-.386zm9.722 22.943l-.803-11.05h-6.113l-.946 11.05zm-5.527-19.572c0 .968.768 1.756 1.713 1.756.944 0 1.713-.788 1.713-1.756s-.769-1.756-1.713-1.756c-.945 0-1.713.788-1.713 1.756zm-2.984-2.98L12.86 26.38h6.28l1.557-10.218-4.07-8.346v8.354c1.335.295 2.339 1.516 2.339 2.972 0 1.676-1.33 3.04-2.966 3.04-1.636 0-2.966-1.364-2.966-3.04 0-1.456 1.004-2.676 2.34-2.971V7.817zM3.008 4.068V.642c0-.355.28-.643.626-.643h3.342c.347 0 .627.288.627.643v1.07h16.794V.642c0-.355.28-.643.626-.643h3.342c.347 0 .627.288.627.643v3.426c0 .354-.28.643-.627.643h-3.342a.635.635 0 0 1-.626-.643v-1.07H7.603v1.07c0 .354-.28.643-.627.643H3.634a.635.635 0 0 1-.626-.643zm22.642-.643h2.089V1.283H25.65zm-21.389 0H6.35V1.283H4.26zM0 19.485C0 10.441 7.178 3.083 16 3.083s16 7.358 16 16.402c0 .356-.28.643-.627.643a.635.635 0 0 1-.627-.643c0-8.335-6.615-15.118-14.746-15.118S1.253 11.15 1.253 19.485c0 .356-.28.643-.626.643A.635.635 0 0 1 0 19.485z"/></g></g></svg>