<svg xmlns="http://www.w3.org/2000/svg" width="64" height="60" viewBox="0 0 64 60"><g><g><path fill="#fff" d="M63.358 24.686c-1.327 5.671-4.393 10.828-8.864 14.914L31.806 60.006 9.501 39.6c-4.47-4.085-7.536-9.243-8.864-14.913-.92-3.932-.618-6.343-.544-6.801C1.027 7.514 8.308-.01 17.42-.01c5.973 0 11.303 3.226 14.402 8.573C34.95 3.284 40.507-.01 46.577-.01c9.112 0 16.392 7.524 17.327 17.895.072.458.375 2.87-.546 6.8zm-1.886-6.413c-.816-9.203-7.074-15.8-14.894-15.8-5.907 0-11.256 3.663-13.629 9.329l-1.134 2.71-1.134-2.71c-2.41-5.754-7.491-9.33-13.262-9.33-7.821 0-14.078 6.596-14.878 15.682l-.018.126c-.002.013-.36 2.115.512 5.836 1.213 5.179 4.02 9.897 8.121 13.643l20.665 18.909 21.026-18.914c4.094-3.74 6.902-8.458 8.114-13.637.872-3.72.513-5.824.511-5.844z"/></g></g></svg>