<svg xmlns="http://www.w3.org/2000/svg" width="30" height="20" viewBox="0 0 30 20"><g><g><path fill="#fff" d="M29.987.599l-.004.021a.451.451 0 0 1-.016.053l-6.992 18.998a.501.501 0 0 1-.741.247l-5.796-3.77-5.535 3.693a.497.497 0 0 1-.38.157l-.007.001h-.001a.496.496 0 0 1-.139-.022c-.014-.004-.026-.01-.04-.015a.552.552 0 0 1-.095-.05c-.008-.005-.016-.006-.024-.011l-.012-.013a.514.514 0 0 1-.076-.078c-.008-.01-.017-.017-.023-.027l-.006-.006c-.006-.008-.006-.018-.01-.026a.484.484 0 0 1-.065-.31v-.02l-1.457-8.094-8.31-4.388a.5.5 0 0 1 .133-.932l29-6c.012-.002.025 0 .038-.002a.488.488 0 0 1 .17.005c.019.004.037.007.056.013.042.013.08.034.117.058.01.006.021.01.031.017a.5.5 0 0 1 .11.115l.01.017.003.003.001.004.014.023a.508.508 0 0 1 .05.145c.002.01 0 .018.001.028a.531.531 0 0 1 .005.112c0 .012-.004.024-.006.035L29.987.6zM9.574 11.275l1.089 6.046 1.373-4.469c0-.002.003-.003.003-.005l.009-.018a.526.526 0 0 1 .046-.094c.008-.012.015-.025.024-.037a.49.49 0 0 1 .03-.036l.018-.017c.017-.017.032-.035.052-.05l11.986-8.822zm3.891 5.655l2.06-1.375-.606-.395-2.12-1.38-1.362 4.504zM1.956 6.705l7.064 3.73 16.973-8.703zm26.5-4.82L13.392 12.973l1.165.758 7.697 5.008z"/></g></g></svg>