<svg xmlns="http://www.w3.org/2000/svg" width="118" height="24" viewBox="0 0 118 24"><g><g><path fill="#fff" d="M16.04.934h5.7v22.5h-5.73V9.393h-.06l-8.46 14.04H.59zm21.6 1.65a6.56 6.56 0 0 1 1.994 2.624c.43 1.03.645 2.126.645 3.286 0 .52-.05 1.055-.15 1.605-.1.55-.245 1.085-.435 1.604a7.588 7.588 0 0 1-.735 1.485c-.3.47-.65.876-1.05 1.215-.48.44-.975.79-1.485 1.05a7.69 7.69 0 0 1-1.575.6c-.54.14-1.1.23-1.68.27-.58.04-1.18.06-1.8.06h-1.05v-5.04h.87c.46 0 .91-.034 1.35-.105.44-.07.825-.205 1.155-.405.33-.2.595-.474.795-.825.2-.35.3-.814.3-1.395 0-.6-.11-1.075-.33-1.425-.22-.35-.51-.615-.87-.795a3.6 3.6 0 0 0-1.215-.345 12.93 12.93 0 0 0-1.395-.075h-2.1v17.46h-5.52V.933h7.35c.58 0 1.18.015 1.8.046.62.03 1.23.094 1.83.194.6.1 1.185.266 1.755.495.57.23 1.085.536 1.545.916zm18.57 0a6.56 6.56 0 0 1 1.994 2.624c.43 1.03.645 2.126.645 3.286 0 .52-.05 1.055-.15 1.605-.1.55-.245 1.085-.435 1.604a7.593 7.593 0 0 1-.735 1.485c-.3.47-.65.876-1.05 1.215-.48.44-.975.79-1.485 1.05-.51.26-1.035.46-1.575.6-.54.14-1.1.23-1.68.27-.58.04-1.18.06-1.8.06h-1.05v-5.04h.87c.46 0 .91-.034 1.35-.105.44-.07.825-.205 1.155-.405.33-.2.595-.474.795-.825.2-.35.3-.814.3-1.395 0-.6-.11-1.075-.33-1.425-.22-.35-.51-.615-.87-.795a3.6 3.6 0 0 0-1.215-.345c-.45-.049-.915-.075-1.395-.075h-2.1v17.46h-5.52V.933h7.35c.58 0 1.18.015 1.8.046.62.03 1.23.094 1.83.194.6.1 1.185.266 1.755.495.57.23 1.085.536 1.545.916zM78.318.934v22.5h-2.28l-13.32-19.77h-.03v19.77h-2.28V.933h3.03l12.57 18.66h.03V3.003h-5.34V.934zm2.16 22.44V.873h12.33v2.04h-10.05v8.1h5.85v2.04h-5.85v8.31h10.05v2.01zm21.75.09c-.96 0-1.85-.155-2.67-.466a6.205 6.205 0 0 1-2.116-1.305 6.01 6.01 0 0 1-1.395-2.04c-.34-.8-.52-1.69-.54-2.67h2.19c.06 1.36.485 2.456 1.275 3.285.79.83 1.875 1.245 3.255 1.245.6 0 1.165-.114 1.695-.344.53-.23.995-.54 1.395-.93a4.293 4.293 0 0 0 1.29-3.076c0-.739-.14-1.36-.42-1.86a4.12 4.12 0 0 0-1.11-1.275c-.46-.35-.98-.645-1.56-.885-.58-.24-1.16-.45-1.74-.63a22.32 22.32 0 0 1-2.19-.735c-.68-.27-1.28-.62-1.8-1.05-.52-.43-.93-.96-1.23-1.59-.3-.63-.45-1.414-.45-2.355 0-.86.165-1.645.495-2.355a5.97 5.97 0 0 1 1.32-1.844 5.927 5.927 0 0 1 1.935-1.215 6.43 6.43 0 0 1 2.37-.435c.84 0 1.625.15 2.355.45.73.3 1.365.715 1.905 1.244.54.53.965 1.16 1.275 1.89.31.73.465 1.515.465 2.355h-2.13a3.99 3.99 0 0 0-1.125-2.79c-.35-.36-.76-.644-1.23-.854a3.664 3.664 0 0 0-1.515-.316 4.13 4.13 0 0 0-2.79 1.065c-.36.33-.645.73-.855 1.2-.21.47-.315.975-.315 1.515 0 .74.165 1.336.495 1.785.33.45.75.82 1.26 1.11.51.29 1.075.521 1.695.69.62.17 1.21.345 1.77.525.78.24 1.49.546 2.13.915.64.37 1.195.81 1.665 1.32s.835 1.1 1.095 1.77c.26.67.39 1.426.39 2.266 0 .9-.175 1.74-.525 2.519a6.46 6.46 0 0 1-1.41 2.025 6.615 6.615 0 0 1-4.605 1.846zm8.399-22.53h7.38v2.01h-5.16v20.52h-2.22z"/></g></g></svg>