<svg xmlns="http://www.w3.org/2000/svg" width="27" height="29" viewBox="0 0 27 29"><g><g><path fill="#fafafa" d="M27 14.5a2.808 2.808 0 0 1-1.485 2.487L4.478 28.543a2.943 2.943 0 0 1-2.945.12A2.838 2.838 0 0 1 0 26.148V2.85C0 1.797.587.835 1.533.338a2.942 2.942 0 0 1 2.945.119l21.036 11.556c.93.51 1.486 1.44 1.486 2.487zM5.256 3.06L15.54 13.156l2.904-2.851zM14.17 14.5L1.935 2.53v23.94zm4.273 4.195l-2.904-2.852L5.256 25.938zm6.622-4.195a.928.928 0 0 0-.496-.83l-4.371-2.4-3.29 3.23 3.29 3.23 4.372-2.401a.927.927 0 0 0 .495-.83z"/></g></g></svg>