<svg xmlns="http://www.w3.org/2000/svg" width="39" height="35" viewBox="0 0 39 35"><g><g><path fill="#00cff1" d="M39 8.235v26.764H0V8.235zm-1.393 1.373H1.393v24.019h36.214zM1.393 6.176c0-.379.312-.687.696-.687h34.822c.384 0 .696.308.696.687a.692.692 0 0 1-.696.686H2.089a.692.692 0 0 1-.696-.686zm2.09-2.745c0-.379.311-.686.695-.686h30.643c.385 0 .697.307.697.686a.692.692 0 0 1-.697.686H4.178a.692.692 0 0 1-.696-.686zM5.57.686c0-.379.312-.687.697-.687h26.464c.385 0 .697.308.697.687a.692.692 0 0 1-.697.686H6.268A.692.692 0 0 1 5.57.686z"/></g></g></svg>