<svg xmlns="http://www.w3.org/2000/svg" width="33" height="35" viewBox="0 0 33 35"><g><g><path fill="#00cff1" d="M16.984 15.851c.067.234 1.656 5.873 1.212 18.576a.594.594 0 0 1-.594.573l-.021-.001a.593.593 0 0 1-.573-.614c.437-12.514-1.15-18.149-1.166-18.204a.594.594 0 0 1 1.142-.33zM33 18.924a.593.593 0 0 1-1.183.116c-.226-2.306-.75-6.515-1.718-8.802a14.832 14.832 0 0 0-13.686-9.052c-1.974 0-3.898.384-5.721 1.144-1.025.427-1.99.933-2.872 1.505a.593.593 0 1 1-.648-.995c.941-.61 1.972-1.151 3.062-1.605A15.992 15.992 0 0 1 16.414 0a16.022 16.022 0 0 1 14.78 9.776c.98 2.31 1.523 6.25 1.806 9.15zM2.316 23.56a.592.592 0 0 1-.57.762.593.593 0 0 1-.569-.424c-2.983-9.993.202-15.839 3.398-18.981a.595.595 0 0 1 .84.006c.231.233.23.609-.005.838C1.158 9.941.089 16.095 2.316 23.56zm26.1-11.068c1.311 3.854 1.327 10.25 1.17 15.998-.01.33-.288.571-.61.578a.595.595 0 0 1-.579-.61c.155-5.642.144-11.907-1.106-15.584-1.445-4.25-6.236-7.97-10.463-8.12a11.347 11.347 0 0 0-4.763.861C6.791 7.81 3.987 13.597 5.543 19.077c.183.642.37 1.33.475 2.043.225 1.537.236 4.115.236 8.54a.593.593 0 0 1-.594.593.593.593 0 0 1-.595-.594c0-4.24-.011-6.914-.224-8.367-.094-.642-.27-1.286-.442-1.892-1.72-6.056 1.38-12.453 7.209-14.88a12.362 12.362 0 0 1 5.262-.953c4.752.17 9.932 4.173 11.547 8.924zm-3.792.058c1.54 3.631 1.646 8.991 1.298 18.912a.593.593 0 0 1-.593.572h-.021a.593.593 0 0 1-.573-.614c.333-9.536.239-15.002-1.206-18.407a7.713 7.713 0 0 0-7.116-4.707c-.56 0-1.117.06-1.656.18a.593.593 0 1 1-.256-1.159 8.894 8.894 0 0 1 1.912-.208 8.897 8.897 0 0 1 8.21 5.431zm-15.47 6.116c.05.18 1.262 4.58 1.262 11.59a.593.593 0 0 1-.595.592.593.593 0 0 1-.594-.593c0-6.848-1.207-11.231-1.22-11.275-1.083-3.993.247-8.114 3.309-10.259a.594.594 0 1 1 .683.97c-2.653 1.86-3.797 5.467-2.845 8.975zM22.33 30.244c.024 1.04.051 2.217.024 2.996a.594.594 0 0 1-.594.573h-.02a.592.592 0 0 1-.574-.613c.026-.746 0-1.906-.024-2.93-.016-.703-.03-1.354-.028-1.8a.594.594 0 0 1 .595-.59h.004a.593.593 0 0 1 .59.598c-.003.437.011 1.077.027 1.766zm-1.538-16.076c1.185 2.799 1.533 7.704 1.616 11.327a.595.595 0 0 1-.58.607h-.014a.594.594 0 0 1-.594-.58c-.081-3.52-.411-8.266-1.521-10.888a3.563 3.563 0 0 0-4.66-1.901c-1.734.722-2.57 2.696-1.943 4.593.546 1.66.885 9.542.885 15.894a.593.593 0 0 1-.594.593.593.593 0 0 1-.595-.593c0-7.057-.378-14.165-.826-15.524-.823-2.49.302-5.095 2.615-6.058a4.736 4.736 0 0 1 1.831-.367 4.746 4.746 0 0 1 4.38 2.897z"/></g></g></svg>