<svg xmlns="http://www.w3.org/2000/svg" width="40" height="40" viewBox="0 0 40 40"><g><g><path fill="#fff" d="M38.44 27.74c-.04.094-.083.186-.124.28a19.893 19.893 0 0 1-10.083 10.2c-.213.096-.427.19-.644.28-.117.048-.235.093-.353.14-.275.106-.552.207-.832.302-.052.017-.102.038-.153.055-.008.003-.015.001-.022.004a19.906 19.906 0 0 1-6.229.998c-2.083 0-4.093-.32-5.982-.914-.007-.002-.013-.001-.02-.004-.126-.039-.247-.087-.373-.13-.2-.067-.401-.135-.6-.209a21.025 21.025 0 0 1-.952-.385c-.247-.106-.49-.216-.732-.331a19.888 19.888 0 0 1-8.896-8.452l-.06-.114c-.13-.242-.256-.485-.376-.732-.066-.136-.127-.274-.19-.41-.08-.177-.164-.352-.24-.532a20.235 20.235 0 0 1-.404-1.038c-.024-.066-.045-.134-.068-.2-.11-.318-.212-.638-.307-.962-.01-.032-.022-.063-.03-.095-.003-.007-.001-.014-.003-.022A19.946 19.946 0 0 1 0 20c0-11.028 8.972-20 20-20s20 8.972 20 20c0 1.798-.242 3.54-.689 5.197-.001.006 0 .011-.002.017-.012.047-.03.092-.042.14a19.972 19.972 0 0 1-.636 1.904c-.062.161-.124.324-.19.483zm-35.192.484c.229.463.475.916.74 1.357.187-.23.39-.446.622-.632l-2.101-3.64c-.111.077-.22.153-.331.237.103.334.217.662.338.987l.12.303a18.807 18.807 0 0 0 .473 1.1c.045.096.092.192.139.288zm.415-3.582l2.104 3.643a4.35 4.35 0 0 1 3.94.414l2.818-3.129a8.542 8.542 0 0 0-8.862-.928zm9.85 1.824l-2.815 3.126c.145.177.28.364.398.569a4.329 4.329 0 0 1 .428 3.308l3.842 1.71a8.499 8.499 0 0 0 .496-2.846v-.003a8.507 8.507 0 0 0-1.143-4.261 8.486 8.486 0 0 0-1.206-1.603zm.47 11.198c.322-.4.599-.826.839-1.268l-3.843-1.71c-.257.4-.584.762-.975 1.067a18.648 18.648 0 0 0 3.365 1.693c.119.044.236.09.356.132.086.03.172.058.258.086zm-9.218-6.898c.066.093.13.187.199.28a19.65 19.65 0 0 0 1 1.239 18.896 18.896 0 0 0 .82.883c.241.243.49.478.745.706.125.113.253.222.382.332.244.207.492.41.748.606l.17.134.01-.005a3.017 3.017 0 0 0 1.102-4.114 3.014 3.014 0 0 0-4.114-1.103c-.44.254-.801.61-1.062 1.042zM20 38.666c1.685 0 3.316-.229 4.87-.65a9.522 9.522 0 0 1-.745-1.087 9.824 9.824 0 0 1-1.097-2.86c-.002-.007-.007-.013-.008-.02-.002-.009.001-.017 0-.027a9.847 9.847 0 0 1-.18-1.358H22a.667.667 0 1 1 0-1.333h.831a9.933 9.933 0 0 1 .984-3.673l-.72-.416a.666.666 0 1 1 .668-1.154l.726.42a9.775 9.775 0 0 1 2.686-2.687l-.42-.727a.667.667 0 1 1 1.156-.666l.415.72A9.822 9.822 0 0 1 32 22.166v-.834a.667.667 0 1 1 1.333 0v.84c1.74.12 3.443.698 4.922 1.718.268-1.256.412-2.557.412-3.892C38.667 9.706 30.293 1.333 20 1.333c-10.293 0-18.667 8.373-18.667 18.666 0 1.435.168 2.83.477 4.174.196-.135.393-.266.593-.381a9.778 9.778 0 0 1 4.264-1.286v-.84a.666.666 0 1 1 1.333 0v.832a9.92 9.92 0 0 1 3.673.985l.416-.72a.666.666 0 1 1 1.155.666l-.42.727c.377.253.741.528 1.084.835.007.006.017.006.024.013.005.005.006.011.011.016a9.821 9.821 0 0 1 1.568 1.822l.726-.42a.666.666 0 1 1 .667 1.155l-.72.416a9.813 9.813 0 0 1 .987 3.673H18a.667.667 0 0 1 0 1.333h-.833a9.834 9.834 0 0 1-.821 3.329c-.002.005 0 .011-.003.016-.005.011-.013.018-.018.029a9.868 9.868 0 0 1-.988 1.703c1.492.385 3.053.59 4.663.59zm17.902-13.39a8.54 8.54 0 0 0-5.249-1.8 8.49 8.49 0 0 0-3.651.842l2.098 3.635a4.349 4.349 0 0 1 5.029 1.427c.243-.418.476-.844.688-1.282l.032-.07a18.3 18.3 0 0 0 .428-.969c.089-.22.18-.439.26-.663.035-.093.064-.188.096-.282.084-.245.167-.49.242-.74l.027-.098zm-8.967 11.108a18.47 18.47 0 0 0 1.319-.798 4.3 4.3 0 0 1-1.349-1.416 4.3 4.3 0 0 1-.293-.627l-4.114.874c.187.632.44 1.252.783 1.846.266.46.586.904.957 1.327l.048-.017c.329-.116.653-.241.972-.376.117-.05.23-.105.346-.157.177-.078.353-.157.525-.24a18.035 18.035 0 0 0 .806-.416zm-4.721-3.27l4.12-.875a4.353 4.353 0 0 1 1.611-3.62l-2.103-3.643a8.54 8.54 0 0 0-3.628 8.139zm6.946-3.723a3.016 3.016 0 0 0-1.101 4.114 2.99 2.99 0 0 0 1.372 1.235c.108-.084.217-.167.324-.254.114-.093.226-.189.338-.284.3-.256.592-.521.875-.795.103-.1.206-.199.306-.3.166-.167.329-.337.488-.51a22.355 22.355 0 0 0 .98-1.168c.131-.169.26-.338.385-.512.072-.1.144-.2.214-.3a3.014 3.014 0 0 0-4.18-1.226zm-8.162-4.863a5.977 5.977 0 0 1-4.553.599 5.957 5.957 0 0 1-3.642-2.796 5.958 5.958 0 0 1-.6-4.551 5.99 5.99 0 0 1 1.11-2.192l-5.047-5.046a13.188 13.188 0 0 0-3.384 8.845.667.667 0 0 1-.665.668h-.002a.666.666 0 0 1-.667-.665 14.42 14.42 0 0 1 .345-3.147l-1.521-.408a.666.666 0 1 1 .345-1.288l1.52.408c.25-.779.563-1.535.936-2.258L5.81 11.91a.666.666 0 1 1 .667-1.154l1.362.787c.438-.688.935-1.336 1.485-1.943l-1.11-1.11a.666.666 0 1 1 .943-.942l1.107 1.107a14.27 14.27 0 0 1 1.94-1.492l-.781-1.353a.666.666 0 1 1 1.154-.666l.786 1.363c.737-.38 1.488-.703 2.255-.947l-.403-1.509a.667.667 0 1 1 1.288-.345l.403 1.506a14.354 14.354 0 0 1 2.427-.31V3.333a.667.667 0 1 1 1.333 0v1.572c.818.039 1.626.15 2.422.326l.408-1.526a.667.667 0 0 1 1.288.345l-.408 1.526c.777.247 1.533.554 2.26.928l.786-1.361a.666.666 0 1 1 1.155.666l-.784 1.358c.685.437 1.339.928 1.947 1.482l1.103-1.102a.666.666 0 1 1 .942.943l-1.104 1.105c.542.594 1.032 1.25 1.479 1.947l1.363-.787a.666.666 0 1 1 .667 1.154l-1.353.782c.375.727.687 1.483.933 2.261l1.513-.405a.666.666 0 0 1 .816.472.666.666 0 0 1-.471.816l-1.515.406c.223 1.03.34 2.086.336 3.15a.667.667 0 0 1-.667.664h-.003a.667.667 0 0 1-.664-.67 13.104 13.104 0 0 0-1.746-6.615 13.065 13.065 0 0 0-1.63-2.234l-5.056 5.056c.186.234.36.478.513.741a5.959 5.959 0 0 1 .598 4.552 5.956 5.956 0 0 1-2.796 3.643zm-1.445-10.99a5.978 5.978 0 0 1 2.19 1.108l5.052-5.051c-4.113-3.71-10.31-4.545-15.358-1.63a13.016 13.016 0 0 0-2.23 1.632l5.052 5.052c.234-.185.478-.36.74-.512a5.968 5.968 0 0 1 4.554-.6zm.78 9.835a4.636 4.636 0 0 0 2.174-2.832A4.634 4.634 0 0 0 24.04 17a4.635 4.635 0 0 0-2.834-2.174 4.634 4.634 0 0 0-3.54.466 4.633 4.633 0 0 0-2.174 2.832 4.633 4.633 0 0 0 .466 3.54 4.634 4.634 0 0 0 2.833 2.175 4.621 4.621 0 0 0 3.54-.466z"/></g></g></svg>