<svg xmlns="http://www.w3.org/2000/svg" width="33" height="35" viewBox="0 0 33 35"><g><g><path fill="#00cff1" d="M17.291 22.166a2.08 2.08 0 0 1-1.225-3.76l7.575-5.463a.588.588 0 0 1 .756.06.583.583 0 0 1 .061.755l-5.478 7.55a2.083 2.083 0 0 1-1.689.858zm-.646-1.434a.916.916 0 0 0 1.387-.11l3.342-4.605-4.62 3.333a.91.91 0 0 0-.109 1.382zm16.02-1.483a15.6 15.6 0 0 1-2.104 7.838c-.006.012-.006.025-.013.038-.01.017-.024.029-.035.045a15.882 15.882 0 0 1-5.718 5.693c-.011.009-.018.02-.03.027-.017.01-.036.014-.054.022a15.728 15.728 0 0 1-7.735 2.084c-.004 0-.009.004-.013.004s-.007-.003-.01-.003c-.03 0-.057.003-.086.003-1.183 0-2.376-.136-3.544-.404a.583.583 0 1 1 .261-1.137c.923.211 1.86.328 2.795.36v-1.153c0-.323.261-.583.585-.583.324 0 .585.26.585.583v1.148c2.2-.1 4.274-.69 6.118-1.66l-.577-.995a.585.585 0 0 1 1.013-.584l.576.994a14.717 14.717 0 0 0 4.547-4.534l-.997-.573a.582.582 0 0 1-.214-.797.585.585 0 0 1 .8-.214l.998.576a14.447 14.447 0 0 0 1.667-6.195h-1.155a.584.584 0 1 1 0-1.166h1.155a14.443 14.443 0 0 0-1.667-6.195l-.998.575a.583.583 0 0 1-.8-.213.582.582 0 0 1 .213-.797l.997-.574a14.716 14.716 0 0 0-4.548-4.533l-.575.994a.584.584 0 0 1-.8.213.582.582 0 0 1-.213-.797l.577-.996a14.554 14.554 0 0 0-6.118-1.66v1.15a.583.583 0 0 1-.585.583.583.583 0 0 1-.585-.583V4.68c-.172.008-.35.018-.541.033l-.628.048c-.544.063-1.088.155-1.626.279a.584.584 0 1 1-.262-1.137 16.069 16.069 0 0 1 1.886-.313v-.674h-.877a1.462 1.462 0 0 1-1.463-1.458c0-.805.656-1.459 1.463-1.459h5.266c.807 0 1.463.654 1.463 1.459 0 .804-.656 1.458-1.463 1.458h-.877v.695c2.168.254 4.2.946 6.01 1.986.013.006.026.005.038.012s.018.018.03.026a15.907 15.907 0 0 1 2.813 2.08l1.257-1.253-.828-.825 2.482-2.474 2.482 2.474-2.482 2.475-.827-.825-1.257 1.253a15.848 15.848 0 0 1 2.086 2.805c.008.011.019.018.026.03.006.011.006.025.012.037a15.606 15.606 0 0 1 2.104 7.837zM29.693 5.637l.828.825.827-.825-.827-.824zM16.58 3.507c.096-.001.191-.008.287-.008l.044.002.052-.002c.187 0 .381.005.585.012V1.75h2.048c.16 0 .292-.132.292-.292a.293.293 0 0 0-.292-.291H14.33c-.161 0-.293.13-.293.29 0 .161.132.293.293.293h2.048V3.51l.202-.003zM12.282 8.75a.584.584 0 0 1-.585.583H8.77a.584.584 0 1 1 0-1.167h2.926c.323 0 .585.26.585.584zm0 4.083a.583.583 0 0 1-.585.583H5.846a.583.583 0 1 1 0-1.166h5.85c.324 0 .586.26.586.583zm0 4.083a.584.584 0 0 1-.585.583H2.92a.584.584 0 1 1 0-1.166h8.777c.323 0 .585.26.585.583zm0 4.083a.584.584 0 0 1-.585.584H.58a.584.584 0 1 1 0-1.167h11.117c.323 0 .585.261.585.583zm0 4.084a.584.584 0 0 1-.585.583H4.09a.584.584 0 1 1 0-1.167h7.606c.323 0 .585.261.585.584zm0 4.083a.584.584 0 0 1-.585.583H7.6a.584.584 0 1 1 0-1.166h4.096c.323 0 .585.26.585.583z"/></g></g></svg>